<?xml version="1.0" encoding="utf-8"?>
<!-- Generator: Adobe Illustrator 28.0.0, SVG Export Plug-In . SVG Version: 6.00 Build 0)  -->
<svg version="1.1" id="Layer_1" xmlns="http://www.w3.org/2000/svg" xmlns:xlink="http://www.w3.org/1999/xlink" x="0px" y="0px"
	 viewBox="0 0 512 60" style="enable-background:new 0 0 512 60;" xml:space="preserve">
<style type="text/css">
	.st0{fill:#FFFFFF;}
	.st1{fill:#046487;}
</style>
<g>
	<g>
		<path class="st0" d="M440.44,37.48c0-4.45,0.19-8.18-0.04-11.88c-0.37-6.02-3.18-9.13-9.27-9.59c-4.91-0.38-9.92-0.25-14.83,0.22
			c-4.53,0.44-7.43,3.36-7.61,8c-0.28,7.12-0.4,14.27-0.07,21.38c0.26,5.5,3.44,8.5,8.95,8.83c5.57,0.33,11.17,0.25,16.75,0.09
			c2.91-0.08,5.07-1.31,3.99-5.26c-6.12,0-12.15-0.06-18.18,0.02c-4.13,0.06-6.01-1.84-5.79-5.95c0.09-1.8,0.02-3.61,0.02-5.84
			C423.25,37.48,431.56,37.48,440.44,37.48z M267.79,8.8c0.68-4.44-1.85-5.59-5.1-5.64c-6.67-0.11-13.35-0.14-20.02,0.07
			c-6.61,0.21-10.1,3.67-10.19,10.18c-0.15,10.4-0.15,20.8,0.01,31.19c0.09,5.93,3.59,9.59,9.59,9.85
			c6.97,0.3,13.97,0.23,20.95,0.06c3.05-0.07,5.42-1.37,4.79-5.6c-7.61,0-15.18,0.04-22.76-0.01c-5.18-0.03-6.4-1.13-6.46-6.28
			c-0.11-9.16-0.11-18.31,0-27.47c0.06-5.27,1.29-6.33,6.82-6.35C252.84,8.78,260.28,8.8,267.79,8.8z M310.02,35.11
			c-0.01,0-0.02,0-0.02,0c0-3.26,0.15-6.53-0.03-9.78c-0.31-5.57-2.96-8.72-8.53-9.24c-5.07-0.47-10.25-0.47-15.32-0.01
			c-5.69,0.52-8.53,3.8-8.74,9.62c-0.23,6.36-0.24,12.74,0,19.1c0.23,6.05,3.65,9.38,9.75,9.69c4.49,0.23,9.02,0.25,13.51-0.01
			c5.76-0.33,9.03-3.78,9.35-9.59C310.16,41.64,310.02,38.37,310.02,35.11z M371.39,54.45c0-11.34,0-22.27,0-33.46
			c4.15,0,7.71,0,11.26,0c8.2,0,8.59,0.41,8.6,8.78c0,8.18,0,16.37,0,24.57c2.3,0,3.96,0,5.82,0c0-10.14,0.13-20.05-0.06-29.96
			c-0.08-4.16-2.55-7.62-6.62-7.89c-8.28-0.54-16.61-0.16-24.89-0.16c0,12.73,0,25.37,0,38.12
			C367.4,54.45,368.94,54.45,371.39,54.45z M327.66,54.46c0-11.36,0-22.29,0-33.46c4.12,0,7.68,0,11.24,0
			c8.26,0,8.62,0.37,8.63,8.75c0.01,8.19,0,16.37,0,24.62c2.3,0,3.95,0,6.09,0c0-9.19,0.09-18.17-0.03-27.15
			c-0.1-7.77-3.28-11.13-11.01-11.46c-5.74-0.24-11.51,0.08-17.25-0.12c-3.08-0.11-4.03,0.97-3.98,4.01
			c0.15,10.72,0.05,21.45,0.08,32.18c0,0.86,0.31,1.72,0.49,2.64C323.72,54.46,325.25,54.46,327.66,54.46z M508.76,21.07
			c1.42-4.5-0.22-5.69-3.92-5.43c-3.05,0.21-6.12,0.04-9.84,0.04c0-4.47,0-8.38,0-12.3c-2.31,0-3.95,0-5.94,0
			c0,12.81-0.02,25.37,0.01,37.93c0.03,10.93,6.91,16.17,17.52,13.08c1.51-0.44,2.56-2.48,3.82-3.79c-0.29-0.46-0.58-0.92-0.87-1.38
			c-3.23,0-6.55,0.48-9.64-0.19c-1.76-0.38-4.37-2.55-4.45-4.04c-0.44-7.84-0.21-15.72-0.21-23.94
			C500,21.07,504.31,21.07,508.76,21.07z M479.53,21c0.87-3.81-1.28-5.12-3.94-5.21c-5.11-0.19-10.27-0.23-15.35,0.25
			c-5.62,0.53-8.33,3.03-8.68,8.54c-0.46,7.1-0.47,14.27,0,21.37c0.36,5.47,3.72,8.27,9.26,8.55c4.8,0.24,9.63,0.19,14.44,0.04
			c2.94-0.09,5.11-1.24,4.16-5.28c-5.47,0-10.89-0.06-16.3,0.02c-4.06,0.06-6.01-1.63-5.89-5.85c0.16-5.43,0.17-10.88,0-16.31
			c-0.13-4.39,1.81-6.24,6.13-6.15C468.76,21.09,474.17,21,479.53,21z"/>
		<path d="M440.44,37.48c-8.88,0-17.19,0-26.08,0c0,2.23,0.08,4.04-0.02,5.84c-0.22,4.11,1.66,6.01,5.79,5.95
			c6.03-0.08,12.07-0.02,18.18-0.02c1.07,3.96-1.08,5.18-3.99,5.26c-5.58,0.16-11.18,0.23-16.75-0.09
			c-5.51-0.32-8.69-3.32-8.95-8.83c-0.34-7.11-0.21-14.26,0.07-21.38c0.18-4.63,3.09-7.56,7.61-8c4.91-0.48,9.91-0.6,14.83-0.22
			c6.08,0.46,8.9,3.58,9.27,9.59C440.63,29.3,440.44,33.03,440.44,37.48z M435.57,32.43c-1.32-4.17-1.76-9.86-3.51-10.29
			c-4.98-1.24-10.71-1.15-15.68,0.18c-1.63,0.44-1.83,6.25-2.81,10.11C421.18,32.43,427.44,32.43,435.57,32.43z"/>
		<path d="M267.79,8.8c-7.51,0-14.95-0.02-22.38,0.01c-5.52,0.02-6.76,1.08-6.82,6.35c-0.1,9.16-0.11,18.31,0,27.47
			c0.06,5.14,1.28,6.24,6.46,6.28c7.58,0.05,15.15,0.01,22.76,0.01c0.63,4.23-1.75,5.53-4.79,5.6c-6.98,0.16-13.97,0.24-20.95-0.06
			c-5.99-0.26-9.5-3.92-9.59-9.85c-0.16-10.4-0.16-20.8-0.01-31.19c0.09-6.52,3.58-9.98,10.19-10.18
			c6.67-0.21,13.35-0.18,20.02-0.07C265.94,3.22,268.48,4.37,267.79,8.8z"/>
		<path d="M310.02,35.11c0,3.26,0.15,6.53-0.03,9.78c-0.32,5.81-3.59,9.25-9.35,9.59c-4.49,0.26-9.02,0.24-13.51,0.01
			c-6.1-0.31-9.52-3.64-9.75-9.69c-0.25-6.36-0.23-12.74,0-19.1c0.21-5.82,3.04-9.1,8.74-9.62c5.07-0.46,10.25-0.46,15.32,0.01
			c5.58,0.52,8.22,3.67,8.53,9.24c0.18,3.25,0.03,6.52,0.03,9.78C310,35.11,310.01,35.11,310.02,35.11z M304.25,35.38
			c0-2.95,0.06-5.9-0.01-8.84c-0.08-3.47-1.66-5.56-5.4-5.54c-3.41,0.02-6.83,0.01-10.24,0c-3.43-0.01-5.26,1.86-5.35,5.12
			c-0.15,6.05-0.29,12.12,0.13,18.13c0.12,1.68,1.94,4.22,3.47,4.66c12.97,3.67,17.41,0.2,17.41-13.07
			C304.27,35.69,304.27,35.54,304.25,35.38z"/>
		<path d="M371.39,54.45c-2.45,0-3.99,0-5.89,0c0-12.74,0-25.39,0-38.12c8.28,0,16.61-0.38,24.89,0.16
			c4.07,0.27,6.54,3.73,6.62,7.89c0.19,9.91,0.06,19.82,0.06,29.96c-1.86,0-3.52,0-5.82,0c0-8.2,0-16.38,0-24.57
			c0-8.38-0.4-8.78-8.6-8.78c-3.56,0-7.12,0-11.26,0C371.39,32.18,371.39,43.11,371.39,54.45z"/>
		<path d="M327.66,54.46c-2.41,0-3.94,0-5.74,0c-0.18-0.93-0.49-1.79-0.49-2.64c-0.03-10.73,0.07-21.45-0.08-32.18
			c-0.04-3.04,0.9-4.12,3.98-4.01c5.74,0.2,11.51-0.12,17.25,0.12c7.72,0.33,10.91,3.69,11.01,11.46
			c0.11,8.98,0.03,17.96,0.03,27.15c-2.14,0-3.79,0-6.09,0c0-8.24,0-16.43,0-24.62c-0.01-8.38-0.37-8.75-8.63-8.75
			c-3.56,0-7.12,0-11.24,0C327.66,32.17,327.66,43.1,327.66,54.46z"/>
		<path d="M508.76,21.07c-4.45,0-8.76,0-13.53,0c0,8.22-0.24,16.1,0.21,23.94c0.08,1.49,2.69,3.66,4.45,4.04
			c3.08,0.66,6.41,0.19,9.64,0.19c0.29,0.46,0.58,0.92,0.87,1.38c-1.26,1.3-2.31,3.35-3.82,3.79c-10.61,3.09-17.49-2.15-17.52-13.08
			c-0.03-12.56-0.01-25.11-0.01-37.93c2,0,3.63,0,5.94,0c0,3.92,0,7.83,0,12.3c3.72,0,6.79,0.17,9.84-0.04
			C508.54,15.38,510.18,16.57,508.76,21.07z"/>
		<path d="M479.53,21c-5.36,0-10.76,0.09-16.17-0.03c-4.32-0.09-6.27,1.75-6.13,6.15c0.17,5.43,0.16,10.88,0,16.31
			c-0.13,4.23,1.83,5.92,5.89,5.85c5.42-0.08,10.83-0.02,16.3-0.02c0.96,4.03-1.21,5.18-4.16,5.28c-4.81,0.15-9.64,0.2-14.44-0.04
			c-5.54-0.28-8.9-3.07-9.26-8.55c-0.47-7.1-0.46-14.27,0-21.37c0.35-5.51,3.06-8.01,8.68-8.54c5.08-0.48,10.24-0.44,15.35-0.25
			C478.25,15.88,480.4,17.19,479.53,21z"/>
		<path class="st0" d="M435.57,32.43c-8.13,0-14.39,0-22,0c0.98-3.86,1.18-9.67,2.81-10.11c4.96-1.33,10.69-1.42,15.68-0.18
			C433.81,22.58,434.25,28.26,435.57,32.43z"/>
		<path class="st0" d="M304.26,35.38c0.01,0.16,0.01,0.31,0.01,0.47c0,13.28-4.44,16.74-17.41,13.07c-1.53-0.43-3.35-2.98-3.47-4.66
			c-0.42-6.02-0.28-12.09-0.13-18.13c0.08-3.26,1.91-5.13,5.35-5.12c3.41,0.01,6.83,0.02,10.24,0c3.74-0.03,5.32,2.07,5.4,5.54
			C304.31,29.49,304.25,32.43,304.26,35.38z"/>
	</g>
	<g>
		<path class="st1" d="M135.89,39.71c0-2.57,0.01-4.25,0-5.94c-0.02-2.64,0.13-5.3-0.12-7.92c-0.56-5.82-4.22-9.21-10.17-9.43
			c-4.19-0.16-8.39-0.13-12.59-0.03c-7.03,0.17-10.76,3.54-11.1,10.49c-0.29,5.89-0.29,11.82,0.01,17.71
			c0.3,5.94,3.23,9.5,8.99,10.16c5.83,0.67,11.79,0.57,17.66,0.26c1.71-0.09,3.82-1.72,4.84-3.25c0.88-1.32,0.82-3.58,0.44-5.27
			c-0.15-0.67-2.25-1.23-3.48-1.28c-4.03-0.16-8.08,0-12.12-0.1c-2.04-0.05-5.04,0.51-4.49-2.87c0.17-1.05,2.76-2.34,4.3-2.42
			C123.77,39.53,129.5,39.71,135.89,39.71z"/>
		<path class="st1" d="M199.79,54.98c4.15,0,7.66,0,11.52,0c0-10.29,0.28-20.36-0.13-30.39c-0.17-4.16-3.27-7.58-7.46-7.83
			c-8.61-0.5-17.27-0.15-25.97-0.15c0,13.08,0,25.72,0,38.35c3.86,0,7.37,0,11.39,0c0-1.92,0-3.6,0-5.27
			c0-6.53-0.11-13.06,0.11-19.58c0.04-1.28,1.22-3.41,2.17-3.59c2.61-0.5,5.39-0.17,8.39-0.17
			C199.79,36.31,199.79,45.44,199.79,54.98z"/>
		<path class="st1" d="M25.45,16.61c0,12.96,0,25.57,0,38.37c3.82,0,7.31,0,11.44,0c0-9.58,0-18.94,0-28.19
			c10.62-1.4,10.62-1.4,10.62,8.22c0,6.61,0,13.23,0,19.95c4.2,0,7.68,0,11,0c0-10.44,0.23-20.63-0.11-30.79
			c-0.14-4.12-3.29-7.18-7.22-7.41C42.71,16.27,34.21,16.61,25.45,16.61z"/>
		<path class="st1" d="M69.32,4.5c0,13.79-0.28,27.11,0.12,40.41c0.19,6.41,4.09,9.63,10.55,10.23c2,0.19,4.03,0.11,6.05,0.07
			c6.13-0.13,8.65-3.51,7.06-10.1c-2.78,0-5.74,0.27-8.61-0.12c-1.27-0.17-3.31-1.62-3.38-2.59c-0.34-5.2-0.16-10.42-0.16-16.14
			c4.33,0,7.98,0,11.71,0c0-3.52,0-6.51,0-9.92c-2.83,0-5.3-0.12-7.75,0.03c-3.03,0.18-4.23-1.07-4.03-4.09
			c0.17-2.55,0.03-5.11,0.03-7.78C76.68,4.5,73.29,4.5,69.32,4.5z"/>
		<path class="st1" d="M13.18,55.03c0-17.11,0-33.66,0-50.37c-4.12,0-7.91,0-11.78,0c0,16.97,0,33.64,0,50.37
			C5.46,55.03,9.15,55.03,13.18,55.03z"/>
		<path class="st1" d="M169.08,25.98c1.55-4.53,0.34-8.41-3.87-9.12c-4.74-0.8-9.85-0.25-14.66,0.54c-3.29,0.55-4.9,3.35-4.81,7
			c0.15,6.2,0.04,12.41,0.04,18.62c0,3.97,0,7.95,0,11.9c4.25,0,7.74,0,11.71,0c0-6.17,0-12.03,0-17.9c0-10.31,0-10.31,10.06-10.75
			C168,26.25,168.44,26.1,169.08,25.98z"/>
		<path class="st1" d="M135.89,39.71c-6.39,0-12.12-0.17-17.83,0.11c-1.54,0.08-4.13,1.37-4.3,2.42c-0.55,3.38,2.45,2.82,4.49,2.87
			c4.04,0.1,8.09-0.06,12.12,0.1c1.23,0.05,3.33,0.61,3.48,1.28c0.38,1.68,0.44,3.94-0.44,5.27c-1.01,1.53-3.12,3.16-4.84,3.25
			c-5.87,0.31-11.83,0.4-17.66-0.26c-5.76-0.66-8.68-4.22-8.99-10.16c-0.3-5.89-0.3-11.82-0.01-17.71
			c0.34-6.95,4.07-10.33,11.1-10.49c4.19-0.1,8.4-0.13,12.59,0.03c5.95,0.22,9.61,3.61,10.17,9.43c0.25,2.62,0.1,5.28,0.12,7.92
			C135.9,35.45,135.89,37.14,135.89,39.71z M118.76,31.18c0,0.01,0,0.01,0,0.02c1.08,0,2.39,0.38,3.2-0.1
			c0.94-0.55,1.45-1.85,2.15-2.82c-1.32-0.66-2.68-1.92-3.95-1.84c-2.26,0.15-5.58-1.83-6.46,2.12c-0.16,0.7,0.99,2.08,1.86,2.52
			C116.42,31.52,117.68,31.18,118.76,31.18z"/>
		<path class="st1" d="M199.79,54.98c0-9.54,0-18.67,0-28.63c-3.01,0-5.78-0.33-8.39,0.17c-0.95,0.18-2.12,2.31-2.17,3.59
			c-0.22,6.52-0.11,13.05-0.11,19.58c0,1.67,0,3.35,0,5.27c-4.02,0-7.53,0-11.39,0c0-12.63,0-25.27,0-38.35
			c8.7,0,17.36-0.35,25.97,0.15c4.2,0.25,7.29,3.67,7.46,7.83c0.42,10.04,0.13,20.1,0.13,30.39
			C207.45,54.98,203.95,54.98,199.79,54.98z"/>
		<path class="st1" d="M25.45,16.61c8.77,0,17.27-0.34,25.72,0.15c3.94,0.23,7.09,3.28,7.22,7.41c0.34,10.16,0.11,20.34,0.11,30.79
			c-3.31,0-6.8,0-11,0c0-6.72,0-13.33,0-19.95c0-9.62,0-9.62-10.62-8.22c0,9.25,0,18.61,0,28.19c-4.13,0-7.61,0-11.44,0
			C25.45,42.18,25.45,29.57,25.45,16.61z"/>
		<path class="st1" d="M69.32,4.5c3.97,0,7.37,0,11.59,0c0,2.67,0.13,5.24-0.03,7.78c-0.2,3.02,1,4.27,4.03,4.09
			c2.45-0.15,4.92-0.03,7.75-0.03c0,3.41,0,6.4,0,9.92c-3.73,0-7.38,0-11.71,0c0,5.72-0.18,10.94,0.16,16.14
			c0.06,0.97,2.1,2.42,3.38,2.59c2.87,0.39,5.83,0.12,8.61,0.12c1.6,6.59-0.92,9.97-7.06,10.1c-2.02,0.04-4.05,0.12-6.05-0.07
			c-6.46-0.61-10.36-3.83-10.55-10.23C69.03,31.61,69.32,18.29,69.32,4.5z"/>
		<path class="st1" d="M13.18,55.03c-4.03,0-7.72,0-11.78,0c0-16.72,0-33.39,0-50.37c3.86,0,7.66,0,11.78,0
			C13.18,21.36,13.18,37.92,13.18,55.03z"/>
		<path class="st1" d="M169.08,25.98c-0.64,0.12-1.08,0.27-1.53,0.29c-10.06,0.44-10.06,0.44-10.06,10.75c0,5.87,0,11.73,0,17.9
			c-3.97,0-7.47,0-11.71,0c0-3.95,0-7.92,0-11.9c0-6.21,0.11-12.42-0.04-18.62c-0.09-3.65,1.51-6.46,4.81-7
			c4.81-0.8,9.93-1.35,14.66-0.54C169.42,17.57,170.63,21.45,169.08,25.98z"/>
		<path class="st0" d="M118.76,31.18c-1.08,0-2.34,0.34-3.2-0.1c-0.87-0.44-2.02-1.82-1.86-2.52c0.88-3.95,4.2-1.97,6.46-2.12
			c1.27-0.09,2.63,1.18,3.95,1.84c-0.7,0.97-1.21,2.27-2.15,2.82c-0.81,0.47-2.11,0.1-3.2,0.1
			C118.76,31.19,118.76,31.18,118.76,31.18z"/>
	</g>
</g>
</svg>
